<svg width="20" height="20" viewBox="0 0 20 20" fill="none" xmlns="http://www.w3.org/2000/svg">
<path d="M7.08317 15.8339H6.6665C3.33317 15.8339 1.6665 15.0006 1.6665 10.8339V6.66724C1.6665 3.3339 3.33317 1.66724 6.6665 1.66724H13.3332C16.6665 1.66724 18.3332 3.3339 18.3332 6.66724V10.8339C18.3332 14.1672 16.6665 15.8339 13.3332 15.8339H12.9165C12.6582 15.8339 12.4082 15.9589 12.2498 16.1672L10.9998 17.8339C10.4498 18.5672 9.54984 18.5672 8.99984 17.8339L7.74984 16.1672C7.6165 15.9839 7.30817 15.8339 7.08317 15.8339Z" stroke="#0047AB" stroke-width="1.5" stroke-miterlimit="10" stroke-linecap="round" stroke-linejoin="round"/>
<path d="M5.8335 6.66724H14.1668" stroke="#0047AB" stroke-width="1.5" stroke-linecap="round" stroke-linejoin="round"/>
<path d="M5.8335 10.8328H10.8335" stroke="#0047AB" stroke-width="1.5" stroke-linecap="round" stroke-linejoin="round"/>
</svg>
