<svg width="20" height="20" viewBox="0 0 20 20" fill="none" xmlns="http://www.w3.org/2000/svg">
<path d="M10.0999 10.6495C10.0416 10.6412 9.9666 10.6412 9.89993 10.6495C8.43327 10.5995 7.2666 9.3995 7.2666 7.9245C7.2666 6.41616 8.48327 5.19116 9.99993 5.19116C11.5083 5.19116 12.7333 6.41616 12.7333 7.9245C12.7249 9.3995 11.5666 10.5995 10.0999 10.6495Z" stroke="#0047AB" stroke-width="1.5" stroke-linecap="round" stroke-linejoin="round"/>
<path d="M15.6166 16.1493C14.1333 17.5077 12.1666 18.3327 9.99997 18.3327C7.8333 18.3327 5.86663 17.5077 4.3833 16.1493C4.46663 15.366 4.96663 14.5993 5.8583 13.9993C8.14163 12.4826 11.875 12.4826 14.1416 13.9993C15.0333 14.5993 15.5333 15.366 15.6166 16.1493Z" stroke="#0047AB" stroke-width="1.5" stroke-linecap="round" stroke-linejoin="round"/>
<path d="M9.99984 18.3339C14.6022 18.3339 18.3332 14.6029 18.3332 10.0006C18.3332 5.3982 14.6022 1.66724 9.99984 1.66724C5.39746 1.66724 1.6665 5.3982 1.6665 10.0006C1.6665 14.6029 5.39746 18.3339 9.99984 18.3339Z" stroke="#0047AB" stroke-width="1.5" stroke-linecap="round" stroke-linejoin="round"/>
</svg>
