<svg width="118" height="43" viewBox="0 0 118 43" fill="none" xmlns="http://www.w3.org/2000/svg">
<path opacity="0.5" d="M111.95 39.7637C111.95 38.383 113.069 37.2637 114.45 37.2637H114.926C116.306 37.2637 117.426 38.383 117.426 39.7637C117.426 41.1443 116.306 42.2637 114.926 42.2637H114.45C113.07 42.2637 111.95 41.1443 111.95 39.7637ZM91.9766 39.7637C91.9766 38.383 93.0959 37.2637 94.4766 37.2637H95.4277C96.8084 37.2637 97.9277 38.383 97.9277 39.7637C97.9276 41.1443 96.8084 42.2637 95.4277 42.2637H94.4766C93.096 42.2636 91.9767 41.1442 91.9766 39.7637ZM88.0938 21.3086C88.0939 19.928 89.2132 18.8087 90.5938 18.8086H91.0693C92.45 18.8086 93.5692 19.928 93.5693 21.3086C93.5692 22.6892 92.45 23.8086 91.0693 23.8086H90.5938C89.2132 23.8085 88.0939 22.6892 88.0938 21.3086ZM72.0029 39.7637C72.0029 38.383 73.1223 37.2638 74.5029 37.2637H75.4541C76.8348 37.2637 77.9541 38.383 77.9541 39.7637C77.954 41.1443 76.8347 42.2637 75.4541 42.2637H74.5029C73.1224 42.2636 72.0031 41.1442 72.0029 39.7637ZM69.3389 2.5C69.3391 1.11952 70.4583 1.52588e-05 71.8389 0H72.3145C73.695 0 74.8142 1.11951 74.8145 2.5C74.8143 3.8806 73.6951 5 72.3145 5H71.8389C70.4583 4.99998 69.339 3.88059 69.3389 2.5ZM68.1201 21.3086C68.1203 19.9281 69.2396 18.8087 70.6201 18.8086H71.5713C72.9519 18.8086 74.0712 19.928 74.0713 21.3086C74.0712 22.6892 72.9519 23.8086 71.5713 23.8086H70.6201C69.2396 23.8085 68.1203 22.6891 68.1201 21.3086ZM52.0293 39.7637C52.0293 38.3831 53.1487 37.2638 54.5293 37.2637H55.4805C56.8612 37.2637 57.9805 38.383 57.9805 39.7637C57.9803 41.1443 56.8611 42.2637 55.4805 42.2637H54.5293C53.1488 42.2635 52.0294 41.1442 52.0293 39.7637ZM49.3652 2.5C49.3655 1.11955 50.4847 6.48499e-05 51.8652 0H52.8164C54.197 0 55.3161 1.11951 55.3164 2.5C55.3163 3.8806 54.197 5 52.8164 5H51.8652C50.4847 4.99994 49.3654 3.88056 49.3652 2.5ZM48.1465 21.3086C48.1466 19.9281 49.266 18.8088 50.6465 18.8086H51.5977C52.9783 18.8086 54.0975 19.928 54.0977 21.3086C54.0975 22.6892 52.9783 23.8086 51.5977 23.8086H50.6465C49.266 23.8084 48.1466 22.6891 48.1465 21.3086ZM32.0557 39.7637C32.0557 38.3831 33.1751 37.2639 34.5557 37.2637H35.5068C36.8876 37.2637 38.0068 38.383 38.0068 39.7637C38.0067 41.1443 36.8875 42.2637 35.5068 42.2637H34.5557C33.1752 42.2635 32.0558 41.1441 32.0557 39.7637ZM29.3916 2.5C29.3919 1.11958 30.5111 0.000110626 31.8916 0H32.8428C34.2233 0 35.3425 1.11951 35.3428 2.5C35.3426 3.8806 34.2234 5 32.8428 5H31.8916C30.5111 4.99989 29.3917 3.88053 29.3916 2.5ZM28.1729 21.3086C28.173 19.9281 29.2924 18.8088 30.6729 18.8086H31.624C33.0047 18.8086 34.1239 19.928 34.124 21.3086C34.1239 22.6892 33.0047 23.8086 31.624 23.8086H30.6729C29.2924 23.8084 28.173 22.6891 28.1729 21.3086ZM12.082 39.7637C12.082 38.3831 13.2015 37.2639 14.582 37.2637H15.5332C16.9139 37.2637 18.0332 38.383 18.0332 39.7637C18.0331 41.1443 16.9138 42.2637 15.5332 42.2637H14.582C13.2016 42.2634 12.0822 41.1441 12.082 39.7637ZM9.41797 2.5C9.41824 1.11961 10.5376 0.000160217 11.918 0H12.8691C14.2497 0 15.3689 1.11951 15.3691 2.5C15.369 3.8806 14.2498 5 12.8691 5H11.918C10.5375 4.99984 9.41811 3.8805 9.41797 2.5ZM8.19922 21.3086C8.19936 19.9282 9.31881 18.8089 10.6992 18.8086H11.6504C13.031 18.8086 14.1503 19.928 14.1504 21.3086C14.1503 22.6892 13.031 23.8086 11.6504 23.8086H10.6992C9.31881 23.8083 8.19936 22.689 8.19922 21.3086ZM-7.89062 39.7637C-7.89062 38.383 -6.77134 37.2637 -5.39062 37.2637L-4.43945 37.2637C-3.05895 37.2639 -1.93945 38.3831 -1.93945 39.7637C-1.93959 41.1441 -3.05904 42.2634 -4.43945 42.2637H-5.39062C-6.77125 42.2637 -7.89049 41.1443 -7.89062 39.7637ZM-10.5557 2.5C-10.5554 1.11964 -9.43604 0.000209808 -8.05566 0H-7.10449C-5.72395 0 -4.60476 1.11951 -4.60449 2.5C-4.60463 3.8806 -5.72386 5 -7.10449 5H-8.05566C-9.43611 4.99979 -10.5555 3.88047 -10.5557 2.5ZM-11.7744 21.3086C-11.7743 19.9282 -10.6548 18.8089 -9.27441 18.8086H-8.32324C-6.94262 18.8086 -5.82338 19.928 -5.82324 21.3086C-5.82338 22.6892 -6.94262 23.8086 -8.32324 23.8086H-9.27441C-10.6548 23.8083 -11.7743 22.689 -11.7744 21.3086ZM-27.3887 39.7637C-27.3887 38.383 -26.2694 37.2637 -24.8887 37.2637H-24.4131C-23.0325 37.2639 -21.9131 38.3831 -21.9131 39.7637C-21.9132 41.1441 -23.0326 42.2635 -24.4131 42.2637H-24.8887C-26.2693 42.2637 -27.3885 41.1443 -27.3887 39.7637ZM-30.5293 2.5C-30.529 1.11967 -29.4096 0.000259399 -28.0293 0H-27.0781C-25.6976 0 -24.5784 1.11951 -24.5781 2.5C-24.5783 3.8806 -25.6975 5 -27.0781 5H-28.0293C-29.4097 4.99974 -30.5292 3.88044 -30.5293 2.5ZM-31.7471 21.3086C-31.7469 19.928 -30.6277 18.8086 -29.2471 18.8086H-28.2959C-26.9155 18.8088 -25.796 19.9282 -25.7959 21.3086C-25.796 22.689 -26.9155 23.8083 -28.2959 23.8086H-29.2471C-30.6277 23.8085 -31.7469 22.6892 -31.7471 21.3086ZM-50.502 2.5C-50.5017 1.11951 -49.3825 0 -48.002 0H-47.0508C-45.6704 0.000247955 -44.551 1.11967 -44.5508 2.5C-44.5509 3.88044 -45.6704 4.99975 -47.0508 5H-48.002C-49.3826 5 -50.5018 3.8806 -50.502 2.5ZM-51.2451 21.3086C-51.245 19.928 -50.1257 18.8086 -48.7451 18.8086H-48.2695C-46.8891 18.8088 -45.7697 19.9281 -45.7695 21.3086C-45.7697 22.6891 -46.8891 23.8084 -48.2695 23.8086H-48.7451C-50.1257 23.8085 -51.245 22.6892 -51.2451 21.3086ZM-70 2.5C-69.9997 1.11951 -68.8805 0 -67.5 0H-67.0244C-65.644 0.000198364 -64.5247 1.11963 -64.5244 2.5C-64.5245 3.88047 -65.644 4.9998 -67.0244 5H-67.5C-68.8806 5 -69.9999 3.8806 -70 2.5Z" fill="#0047AB"/>
</svg>
