<svg width="73" height="73" viewBox="0 0 73 73" fill="none" xmlns="http://www.w3.org/2000/svg">
<g opacity="0.1">
<path d="M31 51.0137C29.4447 58.5523 28.1796 59.8771 21 61.5137C28.1796 63.1502 29.4392 64.4751 31 72.0137C32.5553 64.4751 33.8204 63.1502 41 61.5137C33.8204 59.8771 32.5553 58.5523 31 51.0137Z" fill="#0047AB"/>
<path d="M47.7085 55.9662C51.6482 35.8747 54.838 32.3407 72.9874 27.9831C54.838 23.6255 51.6482 20.0915 47.7085 0C43.7689 20.0915 40.5791 23.6255 22.4297 27.9831C40.5791 32.3407 43.7689 35.8747 47.7085 55.9662Z" fill="#0047AB"/>
<path d="M11 52.0137C12.7128 43.3988 14.1011 41.8844 22 40.0137C14.1011 38.1429 12.7128 36.6285 11 28.0137C9.28723 36.6285 7.89894 38.1429 0 40.0137C7.89894 41.8844 9.28723 43.3988 11 52.0137Z" fill="#0047AB"/>
</g>
</svg>
